<?xml version="1.0" standalone="no"?><!DOCTYPE svg PUBLIC "-//W3C//DTD SVG 1.1//EN" "http://www.w3.org/Graphics/SVG/1.1/DTD/svg11.dtd"><svg t="1779500734807" class="icon" viewBox="0 0 1024 1024" version="1.1" xmlns="http://www.w3.org/2000/svg" p-id="9160" xmlns:xlink="http://www.w3.org/1999/xlink" width="200" height="200"><path d="M554.028353 147.264547l-236.161882 140.420995 0 446.792874 236.161882 140.419396c44.678508 25.53169 82.975543 6.383672 82.975543-44.679707L637.003895 191.944254C637.003895 140.882474 598.707061 115.351384 554.028353 147.264547zM62.556371 383.426829l0 255.3097c0 51.06218 44.679108 95.741887 95.741287 95.741887l95.741287 0L254.038946 287.685541 158.297658 287.685541C107.235478 287.685541 62.556371 332.364649 62.556371 383.426829zM924.227358 479.168116l-127.654051 0c-19.150016 0-31.914362 12.765345-31.914362 31.913762 0 19.147418 12.764346 31.913762 31.914362 31.913762l127.654051 0c19.149017 0 31.913363-12.766344 31.913363-31.913762C956.140721 491.933461 943.376375 479.168116 924.227358 479.168116zM905.07954 804.688613l-108.506033-63.828524c-12.766344-6.381673-31.914362-6.381673-44.679707 12.765345-6.383672 12.766344-6.383672 31.913363 12.765345 44.679707l108.507232 63.829524c12.765345 6.381673 31.913163 6.381673 44.678508-12.766344C924.227358 836.601976 917.844885 811.071286 905.07954 804.688613zM790.189635 281.302269l108.507232-63.827125c12.764346-6.382673 19.148018-25.53109 12.764346-44.679108-6.381673-12.765345-25.529691-19.148417-38.294836-12.765345l-108.507232 63.827525c-12.765345 6.382073-19.149017 25.53069-12.765345 44.679108C758.275473 281.302269 777.423291 287.685541 790.189635 281.302269z" fill="#272636" p-id="9161"></path></svg>